<?xml version="1.0" encoding="utf-8"?>
<!-- Generator: Adobe Illustrator 18.1.1, SVG Export Plug-In . SVG Version: 6.00 Build 0)  -->
<svg version="1.1" id="Layer_1" xmlns="http://www.w3.org/2000/svg" xmlns:xlink="http://www.w3.org/1999/xlink" x="0px" y="0px"
	 width="93.2px" height="100px" viewBox="609.4 645.8 93.2 100" style="enable-background:new 609.4 645.8 93.2 100;"
	 xml:space="preserve">
<style type="text/css">
	.st0{fill:#FFFFFF;}
</style>
<path class="st0" d="M696.2,745.8H616c-3.7,0-6.6-2.9-6.6-6.6v-26.7c0-3.7,2.9-6.6,6.6-6.6c3.7,0,6.6,2.9,6.6,6.6v20h66.7v-20
	c0-3.7,2.9-6.6,6.6-6.6c3.7,0,6.6,2.9,6.6,6.6v26.7C702.8,742.9,699.9,745.8,696.2,745.8z M660.2,707.5c-2.3,2.1-6,2.1-8.4,0
	L631,688.4c-2.3-2.1-2.3-5.4,0-7.6s6-2.1,8.4,0l9.9,9.1v-37.5c0-3.7,2.9-6.6,6.6-6.6s6.6,2.9,6.6,6.6v37.4l9.9-9.1
	c2.3-2.1,6-2.1,8.4,0c2.3,2.1,2.3,5.4,0,7.6L660.2,707.5z"/>
</svg>
